<svg version="1.2" xmlns="http://www.w3.org/2000/svg" viewBox="0 0 128 128" width="128" height="128"><style>.a{fill-opacity:.78;stroke:#000;stroke-linecap:round;stroke-linejoin:bevel;stroke-width:4}.b{fill:#fff;stroke:#000;stroke-linecap:round;stroke-linejoin:bevel;stroke-width:4}.c{fill:#ff0}.d{fill:#0e4dfd}</style><path fill-rule="evenodd" class="a" d="m125 11v114h-116v-114z"/><path fill-rule="evenodd" class="b" d="m122 7v114h-116v-114z"/><path fill-rule="evenodd" class="c" d="m120 75v45h-112v-45z"/><path class="d" d="m61.9 42.3l0.7-1.7v-1l-0.6-0.1h-2.5l-2.2 4-0.9 0.8-0.8 1.2-0.5 1.3-0.4 0.2-0.2 0.6-0.6 0.3-2.7-3.5-0.4-0.6-2.7-3.9-0.3-0.3-1.9 0.3-0.2 0.5 2.6 5.6 0.6 1.6 2.7 4.3 0.2 0.6 0.4 0.3h1.8 2.9l0.4-0.2 0.6-1.7 0.4-0.5 3-5.9zm20.7 7.6q-0.1-0.3-0.2-0.4-0.1-0.2-0.3-0.4-0.1-0.2-0.3-0.4-0.1-0.2-0.1-0.4-0.4-0.1-0.6-0.2-0.2-0.2-0.5-0.4l-1.2-0.6q-0.1-0.1-0.2-0.2-0.9-0.4-1.8-0.9-1-0.5-1.7-0.9l-1.7-1q-0.2 0-0.4-0.2-0.2-0.3-0.2-1.1 0-0.8 0.2-1.2 0.3-0.4 1.1-1h0.2q0.4 0 0.9-0.1 0.5-0.3 0.8-0.4 0.3-0.2 0.9-0.4 0.7-0.2 1.1-0.3l0.8-0.3q0.2 0 0.7 0 0.5 0 0.8-0.4 0-0.3 0-0.5 0-0.1-0.1-0.2 0-0.2 0-0.3 0-0.2 0-0.6-0.4-0.1-0.6-0.2-0.1-0.1-0.5-0.3-0.6 0.1-1.1 0.1-0.4 0-1 0-0.2 0-0.4 0-0.1 0-0.3-0.1-0.8 0.3-1.3 0.4-0.5 0.1-1.2 0.3l-1.9 1q-0.7 0.3-1.6 0.8-0.9 0.4-1.3 1-0.1 0.2-0.3 0.5-0.2 0.2-0.5 0.5 0 0.5-0.3 0.8-0.2 0.4-0.2 0.8 0 0.1 0 0.1 0.1 0 0.1 0.3 0 0.2-0.1 0.5 0 0.2-0.1 0.3 0.1 0.6 0.3 1.1 0.2 0.4 0.6 0.7l0.4 0.4q0.6 0.2 0.9 0.5 0.4 0.2 0.7 0.6 0.3 0.3 0.6 0.5 0.4 0.3 0.9 0.4l2.4 1.1 1.1 0.4q0 0.2 0.1 0.4 0.1 0.2 0.3 0.4 0.1 0.2 0.3 0.4 0.1 0.3 0.1 0.5 0 0.7-0.3 1.1-0.4 0.3-0.9 0.5-0.4 0.2-0.8 0.2-0.4 0-0.4 0-1.2 0.3-1.9 0.5-0.6 0.2-1.4 0.2-0.4 0-0.9 0-0.5-0.1-1.1-0.2-0.1 0.1-0.4 0.1-0.3 0-0.6-0.1-0.4-0.1-0.4-0.1 0.1 0.3 0.1 0.7 0.1 0.3 0.1 0.6 0.1 0.3 0.1 0.5 0.1 0.2 0.2 0.2 0 0.1-0.1 0.2 0 0.1 0 0.2 0 0.1 0 0.1 0 0 0 0.1 0 0 0.1 0.2 0.1 0.1 0.2 0.1 0.2 0.1 0.3 0.2 0.2 0.1 0.2 0.1 0.5-0.1 0.8-0.1 0.3 0 0.6 0 0.3-0.1 0.7-0.2 0.4 0 0.9-0.1 0.3-0.1 0.6-0.2 0.4 0 0.7 0 0.9 0 1.5 0.2 0.7 0.1 1.3 0.1 0.3 0 0.6 0 0.3 0 0.5-0.1 0.3-0.1 0.5-0.2 0.2 0 0.3 0 0 0 0 0 0.1-0.1 0.2-0.1 0.1 0 0.4-0.2 0.2-0.1 0.6-0.3 0.5-0.3 1.1-0.5 0.6-0.3 1.1-0.7 0.6-0.4 0.9-0.9 0.4-0.5 0.4-1.3 0-0.4-0.1-1 0-0.5 0-1.2z"/><path  d="m14.4 102l-0.2 2.3 0.1 0.7h0.3l0.2-0.3h1.4l0.4-0.4-0.1-1.4 0.1-2-0.1-0.5q0.3-0.1 0.4-0.1 0.2-0.1 0.4-0.3l2-1.1q0.1-0.1 0.4-0.4 0.4-0.2 0.7-0.6 0.3-0.4 0.5-0.9 0.2-0.4 0.2-0.9 0-0.9-0.2-1.8-0.1-0.9-0.5-1.7-0.4-0.7-0.9-1.2-0.5-0.5-1.2-0.6-0.3 0-0.5-0.1-0.1 0-0.2-0.3l-1.6 0.2h-0.3l-0.1 0.2-0.7-0.1-0.2 1.2-0.1 3.7-0.2 1zm1.9-6.9v-2q0.1 0 0.3 0 0.1-0.1 0.2-0.1 0.4 0 0.9 0.3 0.3 0.1 0.7 0.2 0.3 0 0.6 0.1 0.3 0.2 0.5 0.4 0.2 0.3 0.3 1l-0.6 1.4-2.5 0.9h-0.3v-0.8zm13.1 7.7l0.1-1.5-0.4-0.6h-1.4l-0.6 0.2-0.9-0.2-0.4 0.2-0.2-0.6v-6.4l-0.4-1.8-0.1-2.9-0.2-0.4-1.2 0.2-0.3 0.6v2.8l-0.3 2.9v5.4l0.1 1.7 0.2 0.7 0.4-0.2 1.5 0.2 0.5-0.2 1.9 0.2 0.8-0.4zm9.3-0.4l0.5-0.1q-0.1-1.2-0.2-2.1-0.1-1-0.3-1.9 0-0.9-0.2-1.9-0.1-1-0.2-2.2-0.1-0.2-0.1-0.5-0.1-0.4-0.1-0.7-0.1-0.4-0.1-0.7 0-0.4 0-0.6-0.1-0.6-0.2-1.3 0-0.7-0.3-1.3 0-0.1-0.1-0.4-0.1-0.3-0.2-0.3-0.2 0-0.4 0-0.2-0.1-0.3-0.1-0.2 0-0.4 0-0.2 0-0.4-0.1-0.2 0-0.3 0-0.1 0-0.2 0-0.1 0-0.2 0h-0.1q-0.4 0.9-0.7 1.7-0.4 0.7-0.7 1.4-0.3 0.8-0.6 1.6-0.2 0.9-0.5 2-0.2 1-0.4 1.4-0.2 0.5-0.3 0.8-0.2 0.6-0.4 1-0.1 0.4-0.2 1l-0.3 1.4q-0.1 0.3-0.2 0.6 0 0.3-0.1 0.7 0 0.3 0.1 0.5 0 0.1 0 0.3h1.9q0.2-0.6 0.3-1.1 0.1-0.5 0.2-1 0.1-0.5 0.3-1 0.1-0.5 0.3-1.2 0.1-0.2 0.3-0.2 0.2-0.1 0.4-0.1 0.3 0 0.6 0 0.2 0 0.5 0 0.4 0 0.7 0 0.4 0 0.8-0.1 0 0.4 0.1 0.8 0 0.3 0 0.4 0 0.2 0 0.2-0.1 0-0.1 0.3 0 0.8 0.1 1.4 0 0.6 0.1 1.3l0.6 0.1q0.1 0 0.2 0 0.1 0 0.3 0 0.2 0 0.3 0 0.1 0 0.2 0zm-2-6.3v0.2h-0.8q-0.2 0-0.4 0-0.2 0-0.4 0-0.4 0-0.8 0 0 0 0 0 0 0 0 0v-0.1l0.2-0.9q0.2-0.8 0.5-1.6 0.2-0.8 0.6-1.3 0.1-0.1 0.2-0.3 0.1-0.2 0.2-0.4 0.1 0 0.1 0 0.1 0 0.1 0 0 0.1 0.1 0.1 0.1 0.7 0.2 1.2 0.1 0.5 0.1 1l0.1 1q0 0.3 0 0.6 0 0.2 0 0.5zm7.4 0.2h-0.1l-0.3 6 0.2 0.7h0.3l0.2-0.2h1.4l0.4-0.5-0.1-1.4 0.1-2-0.1-0.7-0.1-1.1v-0.3-0.5h0.1l0.2-0.6 0.5-0.7 1.4-3.4 0.3-1.1 0.4-1.1v-0.5l-0.4-0.1h-1.1l-1.1 2.2-0.4 0.5-0.3 0.6-0.3 0.8-0.2 0.1-0.1 0.3-0.3 0.2-1.3-1.9-0.1-0.4-1.3-2.3h-0.2l-0.9 0.1v0.3l1.1 3.2 0.3 0.9 1.5 2.4 0.1 0.3zm16.2-0.1l0.5-2 0.4 1.4 0.2 1.3 1 3.3 0.1 0.5 0.2 0.2h0.6 1.1l0.2-0.1 0.2-1.3 0.1-0.5 0.7-2.8 0.6-1.7 0.2-1.7 0.3-1.4v-0.7l-0.2-0.1h-1.6l-0.8 3.1-0.5 0.7-0.3 0.8-0.3 1.5-0.8-2.2-1-3v-0.8l-0.2-0.1h-1.4l-0.8 3.1-0.1 1.2-0.5 1.8-0.5-0.4-0.8-1.9-0.9-3.8-0.2-0.1-0.7 0.2v0.3l0.9 5.9 1.1 3.3 0.1 0.5 0.1 0.2h0.7 1.1l0.2-0.1 0.2-1.3 0.1-0.4zm11.9 4.7l0.1-2-0.1-0.8-0.1-1.1 0.1-0.2v-2.4l-0.2-1.3v-3.8l-0.2-0.8h-0.4l-0.1 0.3-0.7-0.2-0.4 0.4v13.3l-0.2 0.6h0.3l0.2-0.2h1.4l0.4-0.5zm5.1-9.1h0.1v1.9l-0.3 2.9v4.1l0.1 1.7 0.2 0.6 0.5-0.1 1.4 0.2 0.5-0.2v-2.1l-0.1-0.6v-5l-0.5-1.8v-1.6h0.6q0.1 0.1 0.2 0.1 0 0 0.2 0 0 0 0.1 0 0.1-0.1 0.4-0.1 0.2 0 0.3 0 0.2 0 0.4 0 0.1 0 0.3-0.1 0.2-0.1 0.4-0.3-0.1 0-0.1 0 0 0 0-0.1 0-0.1 0-0.3 0-0.1 0-0.2 0 0 0-0.1 0-0.1 0-0.2-0.1-0.2-0.1-0.3 0-0.2-0.1-0.3-0.1 0-0.2 0.1-0.1 0-0.2 0.1-0.1 0-0.3 0.1-0.1 0-0.4 0-0.1 0-0.1-0.1l-0.1-0.1q0 0 0-0.1-0.7 0-1.2-0.1-0.5-0.1-1-0.1-0.5-0.1-1.1-0.2-0.5-0.1-1.1-0.1l-0.1 0.1q-0.1 0-0.1 0-0.2 0-0.3 0-0.1 0-0.2 0h-0.3l-0.1 0.2q-0.1 0-0.1 0.1 0 0-0.1 0.1 0 0.1 0 0.4 0 0.3 0 0.6 0.1 0.4 0.1 0.6 0.1 0.2 0.2 0.3 0 0 0 0.1 0.1 0 0.1 0.1 0.2 0 0.3 0 0.1-0.1 0.3-0.1 0-0.1 0.2-0.1 0.1 0 0.2 0.1 0.1 0 0.1 0 0.1 0 0.2 0 0.1 0 0.2 0l0.3-0.1q0.1-0.1 0.2-0.1 0.1 0 0.1 0.1zm14 3.3v-5.4l-0.3-0.4h-1.1l-0.3 0.2v4.5l-0.3 0.2h-2.6v-0.2-4.8l-0.2-0.3-0.9-0.2-0.4 0.2-0.2 4.7-0.3 1.5-0.3 5.7 0.2 1.5h1.7l0.4-0.2v-6.3h0.4 0.9 1.2v2.6 0.5 2.1l-0.2 0.6 0.2 0.8h1l0.5 0.1 1-0.7v-1-0.4-1.2zm15.9 7.3l0.5-0.1q-0.1-1.2-0.2-2.1-0.1-1-0.2-1.9-0.1-0.9-0.2-1.9-0.1-1-0.3-2.2-0.1-0.2-0.1-0.5-0.1-0.4-0.1-0.7-0.1-0.4-0.1-0.7 0-0.4 0-0.6-0.1-0.6-0.2-1.3 0-0.7-0.2-1.3-0.1-0.1-0.2-0.4-0.1-0.3-0.2-0.3-0.2 0-0.4 0-0.1-0.1-0.3-0.1-0.2 0-0.4 0-0.2 0-0.4-0.1-0.2 0-0.3 0-0.1 0-0.2 0-0.1 0-0.2 0h-0.1q-0.4 0.9-0.7 1.7-0.4 0.7-0.7 1.4-0.3 0.8-0.6 1.6-0.2 0.9-0.5 2-0.2 1-0.4 1.4-0.2 0.5-0.3 0.8-0.2 0.6-0.3 1-0.1 0.4-0.3 1l-0.3 1.4q-0.1 0.3-0.1 0.6-0.1 0.3-0.2 0.7 0.1 0.3 0.1 0.5 0 0.1 0 0.3h1.9q0.2-0.6 0.3-1.1 0.1-0.5 0.2-1 0.2-0.5 0.3-1 0.1-0.5 0.3-1.2 0.1-0.2 0.3-0.2 0.2-0.1 0.4-0.1 0.3 0 0.6 0 0.3 0 0.5 0 0.4 0 0.7 0 0.4 0 0.8-0.1 0.1 0.4 0.1 0.8 0 0.3 0 0.4 0 0.2 0 0.2-0.1 0-0.1 0.3 0 0.8 0.1 1.4 0 0.6 0.1 1.3l0.6 0.1q0.1 0 0.2 0 0.1 0 0.3 0 0.2 0 0.3 0 0.1 0 0.2 0zm-1.9-6.3l-0.1 0.2h-0.8q-0.2 0-0.4 0-0.2 0-0.4 0-0.4 0-0.8 0 0 0 0 0 0 0 0 0v-0.1l0.2-0.9q0.2-0.8 0.5-1.6 0.2-0.8 0.6-1.3 0.1-0.1 0.2-0.3 0.1-0.2 0.2-0.4 0.1 0 0.1 0 0.1 0 0.1 0h0.1q0 0.1 0 0.1 0.1 0.7 0.2 1.2 0.1 0.5 0.2 1v1q0 0.3 0 0.6 0 0.2 0.1 0.5zm7.8 4.8l0.1-2-0.1-0.7-0.1-1.2v-0.2-2.3l-0.2-1.4v-3.7l-0.2-0.8h-0.3l-0.2 0.2-0.7-0.2-0.3 0.5v13.2l-0.2 0.7h0.3l0.2-0.3h1.4l0.3-0.5z"/></svg>